<svg width="46" height="20" viewBox="0 0 46 20" fill="none" xmlns="http://www.w3.org/2000/svg">
<rect x="0.5" y="0.5" width="45" height="19" rx="4.5" fill="white"/>
<rect x="0.5" y="0.5" width="45" height="19" rx="4.5" stroke="#999999"/>
<g clip-path="url(#clip0_401_2177)">
<path fill-rule="evenodd" clip-rule="evenodd" d="M11.4999 14.8333C13.8932 14.8333 15.8333 12.8932 15.8333 10.4999C15.8333 8.10668 13.8932 6.16659 11.4999 6.16659C9.10668 6.16659 7.16659 8.10668 7.16659 10.4999C7.16659 12.8932 9.10668 14.8333 11.4999 14.8333ZM11.4999 15.9166C14.4915 15.9166 16.9166 13.4915 16.9166 10.4999C16.9166 7.50838 14.4915 5.08325 11.4999 5.08325C8.50838 5.08325 6.08325 7.50838 6.08325 10.4999C6.08325 13.4915 8.50838 15.9166 11.4999 15.9166Z" fill="black"/>
<path fill-rule="evenodd" clip-rule="evenodd" d="M12.4462 13.8456C12.8463 13.0453 13.1251 11.864 13.1251 10.4999C13.1251 9.13586 12.8463 7.9545 12.4462 7.15424C12.0137 6.28918 11.6166 6.16659 11.5001 6.16659C11.3836 6.16659 10.9865 6.28918 10.554 7.15424C10.1538 7.9545 9.87508 9.13586 9.87508 10.4999C9.87508 11.864 10.1538 13.0453 10.554 13.8456C10.9865 14.7107 11.3836 14.8333 11.5001 14.8333C11.6166 14.8333 12.0137 14.7107 12.4462 13.8456ZM11.5001 15.9166C12.9959 15.9166 14.2084 13.4915 14.2084 10.4999C14.2084 7.50838 12.9959 5.08325 11.5001 5.08325C10.0043 5.08325 8.79175 7.50838 8.79175 10.4999C8.79175 13.4915 10.0043 15.9166 11.5001 15.9166Z" fill="black"/>
<path fill-rule="evenodd" clip-rule="evenodd" d="M16.8898 11.0416C16.9075 10.8634 16.9166 10.6827 16.9166 10.4999C16.9166 10.3171 16.9075 10.1364 16.8898 9.95825H6.11C6.09231 10.1364 6.08325 10.3171 6.08325 10.4999C6.08325 10.6827 6.09231 10.8634 6.11 11.0416H16.8898Z" fill="black"/>
<path d="M23.595 11.678V10.809H25.663C26.1103 10.809 26.455 10.6953 26.697 10.468C26.939 10.2407 27.06 9.93267 27.06 9.544C27.06 9.17733 26.939 8.873 26.697 8.631C26.4623 8.389 26.1213 8.268 25.674 8.268H23.595V7.366H25.707C26.191 7.366 26.6127 7.46133 26.972 7.652C27.3313 7.83533 27.6063 8.08833 27.797 8.411C27.995 8.73367 28.094 9.104 28.094 9.522C28.094 9.95467 27.995 10.3323 27.797 10.655C27.6063 10.9777 27.3313 11.2307 26.972 11.414C26.6127 11.59 26.191 11.678 25.707 11.678H23.595ZM22.902 15V7.366H23.936V15H22.902ZM27.302 15L24.53 11.579L25.509 11.238L28.611 15H27.302ZM32.5188 15.11C31.9542 15.11 31.4482 14.9853 31.0008 14.736C30.5608 14.4793 30.2125 14.131 29.9558 13.691C29.6992 13.2437 29.5708 12.7377 29.5708 12.173V7.366H30.6048V12.151C30.6048 12.5543 30.6892 12.9027 30.8578 13.196C31.0265 13.4893 31.2538 13.7167 31.5398 13.878C31.8332 14.0393 32.1595 14.12 32.5188 14.12C32.8928 14.12 33.2192 14.0393 33.4978 13.878C33.7838 13.7167 34.0075 13.4893 34.1688 13.196C34.3375 12.9027 34.4218 12.558 34.4218 12.162V7.366H35.4668V12.184C35.4668 12.7487 35.3385 13.251 35.0818 13.691C34.8252 14.131 34.4768 14.4793 34.0368 14.736C33.5968 14.9853 33.0908 15.11 32.5188 15.11Z" fill="black"/>
</g>
<defs>
<clipPath id="clip0_401_2177">
<rect width="36" height="14" fill="white" transform="translate(5 3)"/>
</clipPath>
</defs>
</svg>
